<?xml version='1.0' encoding='UTF-8'?>
<svg viewBox="-2 -2 32 32" xmlns="http://www.w3.org/2000/svg" xmlns:xlink="http://www.w3.org/1999/xlink">
  <g fill="#000000" transform="translate(-1.2174, -1.2174)">
    <g transform="matrix(0.6087, 0, 0, 0.6087, 0, 0)">
      <path d="M41, 2C37.1459, 2 34, 5.1459 34, 9C34, 10.843 34.7244, 12.5189 35.8965, 13.7715L27.5254, 24L15.9199, 24C15.4307, 20.6175 12.5138, 18 9, 18C5.1459, 18 2, 21.1459 2, 25C2, 28.8541 5.1459, 32 9, 32C12.5138, 32 15.4307, 29.3825 15.9199, 26L27.502, 26L35.5352, 36.6406C34.5767, 37.8386 34, 39.3533 34, 41C34, 44.8541 37.1459, 48 41, 48C44.8541, 48 48, 44.8541 48, 41C48, 37.1459 44.8541, 34 41, 34C39.5152, 34 38.1391, 34.4713 37.0039, 35.2656L29.2715, 25.0254L37.4551, 15.0215C38.4969, 15.6381 39.7064, 16 41, 16C44.8541, 16 48, 12.8541 48, 9C48, 5.1459 44.8541, 2 41, 2zM41, 4C43.7733, 4 46, 6.2267 46, 9C46, 11.7733 43.7733, 14 41, 14C38.2267, 14 36, 11.7733 36, 9C36, 6.2267 38.2267, 4 41, 4zM9, 20C11.7733, 20 14, 22.2267 14, 25C14, 27.7733 11.7733, 30 9, 30C6.2267, 30 4, 27.7733 4, 25C4, 22.2267 6.2267, 20 9, 20zM41, 36C43.7733, 36 46, 38.2267 46, 41C46, 43.7733 43.7733, 46 41, 46C38.2267, 46 36, 43.7733 36, 41C36, 38.2267 38.2267, 36 41, 36z" fill="#000000" />
    </g>
  </g>
</svg>