<?xml version='1.0' encoding='UTF-8'?>
<svg viewBox="-3.9275 -2 32 32" xmlns="http://www.w3.org/2000/svg" xmlns:xlink="http://www.w3.org/1999/xlink">
  <g id="Capa_1" transform="translate(-1.9276, 0)" style="enable-background:new 0 0 484.21 484.21">
    <g transform="matrix(0.0578, 0, 0, 0.0578, 0, 0)">
      <g>
        <path d="M395.527, 97.043L395.527, 55.352L124.537, 55.352L283.997, 226.859C293.98, 237.608 293.845, 254.317 283.678, 264.885L126.017, 428.861L395.521, 428.861L395.521, 403.681C395.521, 388.425 407.934, 376.013 423.195, 376.013C438.451, 376.013 450.876, 388.425 450.876, 403.681L450.876, 456.529C450.876, 471.791 438.457, 484.21 423.195, 484.21L61.014, 484.21C49.908, 484.21 39.907, 477.607 35.55, 467.376C31.191, 457.15 33.361, 445.364 41.059, 437.35L225.643, 245.386L40.743, 46.521C33.251, 38.453 31.247, 26.723 35.642, 16.622C40.042, 6.525 50.005, 0 61.014, 0L423.202, 0C438.457, 0 450.882, 12.413 450.882, 27.68L450.882, 97.043C450.882, 112.302 438.463, 124.72 423.202, 124.72C407.94, 124.72 395.527, 112.308 395.527, 97.043z" />
      </g>
    </g>
  </g>
</svg>