<?xml version='1.0' encoding='UTF-8'?>
<svg viewBox="-2 -3.75 32 32" xmlns="http://www.w3.org/2000/svg" xmlns:xlink="http://www.w3.org/1999/xlink">
  <g transform="translate(0, 0)">
    <g fill="currentColor" class="bi bi-terminal" transform="translate(-0.0024, -1.7524)">
      <g transform="matrix(1.75, 0, 0, 1.75, 0, 0)">
        <path d="M6, 9A0.5 0.5 0 0 1 6.5, 8.5L9.5, 8.5A0.5 0.5 0 0 1 9.5, 9.5L6.5, 9.5A0.5 0.5 0 0 1 6, 9zM3.854, 4.146A0.5 0.5 0 1 0 3.146, 4.854L4.793, 6.5L3.146, 8.146A0.5 0.5 0 1 0 3.854, 8.854L5.854, 6.854A0.5 0.5 0 0 0 5.854, 6.146L3.854, 4.146z" fill="#727272" style="fill:#163844" />
      </g>
    </g>
  </g>
  <g transform="translate(0, 0)">
    <g fill="currentColor" class="bi bi-terminal" transform="translate(-0.0024, -1.7524)">
      <g transform="matrix(1.75, 0, 0, 1.75, 0, 0)">
        <path d="M2, 1A2 2 0 0 0 0, 3L0, 13A2 2 0 0 0 2, 15L14, 15A2 2 0 0 0 16, 13L16, 3A2 2 0 0 0 14, 1L2, 1zM14, 2A1 1 0 0 1 15, 3L15, 13A1 1 0 0 1 14, 14L2, 14A1 1 0 0 1 1, 13L1, 3A1 1 0 0 1 2, 2L14, 2z" fill="#727272" style="fill:#163844" />
      </g>
    </g>
  </g>
</svg>