<?xml version='1.0' encoding='UTF-8'?>
<svg viewBox="-2 -3.003 32 31.9981" xmlns="http://www.w3.org/2000/svg" xmlns:xlink="http://www.w3.org/1999/xlink">
  <g id="Layer_1" transform="translate(0, -1.0031)" style="enable-background:new 0 0 377 377">
    <g transform="matrix(0.0743, 0, 0, 0.0743, 0, 0)">
      <g>
        <circle cx="15" cy="108.5" r="15" />
      </g>
    </g>
  </g>
  <g id="Layer_1" transform="translate(0, -1.003)" style="enable-background:new 0 0 377 377">
    <g transform="matrix(0.0743, 0, 0, 0.0743, 0, 0)">
      <g>
        <circle cx="15" cy="28.5" r="15" />
      </g>
    </g>
  </g>
  <g id="Layer_1" transform="translate(0, -1.0031)" style="enable-background:new 0 0 377 377">
    <g transform="matrix(0.0743, 0, 0, 0.0743, 0, 0)">
      <g>
        <circle cx="15" cy="348.5" r="15" />
      </g>
    </g>
  </g>
  <g id="Layer_1" transform="translate(0, -1.0031)" style="enable-background:new 0 0 377 377">
    <g transform="matrix(0.0743, 0, 0, 0.0743, 0, 0)">
      <g>
        <circle cx="15" cy="268.5" r="15" />
      </g>
    </g>
  </g>
  <g id="Layer_1" transform="translate(0, -1.0031)" style="enable-background:new 0 0 377 377">
    <g transform="matrix(0.0743, 0, 0, 0.0743, 0, 0)">
      <g>
        <circle cx="15" cy="188.5" r="15" />
      </g>
    </g>
  </g>
  <g id="Layer_1" transform="translate(0, -1.0031)" style="enable-background:new 0 0 377 377">
    <g transform="matrix(0.0743, 0, 0, 0.0743, 0, 0)">
      <g>
        <rect x="75" y="93.5" width="302" height="30" rx="0" ry="0" />
      </g>
    </g>
  </g>
  <g id="Layer_1" transform="translate(0, -1.003)" style="enable-background:new 0 0 377 377">
    <g transform="matrix(0.0743, 0, 0, 0.0743, 0, 0)">
      <g>
        <rect x="75" y="13.5" width="302" height="30" rx="0" ry="0" />
      </g>
    </g>
  </g>
  <g id="Layer_1" transform="translate(0, -1.0031)" style="enable-background:new 0 0 377 377">
    <g transform="matrix(0.0743, 0, 0, 0.0743, 0, 0)">
      <g>
        <rect x="75" y="333.5" width="302" height="30" rx="0" ry="0" />
      </g>
    </g>
  </g>
  <g id="Layer_1" transform="translate(0, -1.0031)" style="enable-background:new 0 0 377 377">
    <g transform="matrix(0.0743, 0, 0, 0.0743, 0, 0)">
      <g>
        <rect x="75" y="253.5" width="302" height="30" rx="0" ry="0" />
      </g>
    </g>
  </g>
  <g id="Layer_1" transform="translate(0, -1.0031)" style="enable-background:new 0 0 377 377">
    <g transform="matrix(0.0743, 0, 0, 0.0743, 0, 0)">
      <g>
        <rect x="75" y="173.5" width="302" height="30" rx="0" ry="0" />
      </g>
    </g>
  </g>
</svg>