<?xml version='1.0' encoding='UTF-8'?>
<svg viewBox="-2.0075 -2.0175 32 32" xmlns="http://www.w3.org/2000/svg" xmlns:xlink="http://www.w3.org/1999/xlink">
  <g id="Capa_1" transform="translate(-0.0076, -0.0176)" style="enable-background:new 0 0 485.106 485.106">
    <g transform="matrix(0.0577, 0, 0, 0.0577, 0, 0)">
      <g>
        <g>
          <path d="M475.306, 137.101L445.006, 131.901C442.006, 120.201 437.606, 109.301 431.606, 99.101L449.506, 74.101C452.806, 69.501 452.306, 63.101 448.306, 59.201L437.706, 48.501L427.106, 37.701C424.906, 35.401 421.906, 34.301 418.906, 34.301C416.606, 34.301 414.206, 35.001 412.206, 36.401L387.006, 54.101C376.706, 47.901 365.506, 43.201 353.506, 40.301L348.506, 10.301C347.606, 4.701 342.806, 0.501 337.006, 0.501L321.806, 0.401L306.606, 0.301L306.606, 0.301C301.006, 0.301 296.106, 4.401 295.106, 10.001L289.806, 40.501C278.106, 43.501 267.206, 48.201 257.106, 54.101L232.506, 36.101C230.406, 34.601 228.106, 33.901 225.706, 33.901C222.706, 33.901 219.806, 35.001 217.506, 37.201L206.806, 47.801L196.106, 58.401C192.106, 62.401 191.506, 68.701 194.806, 73.301L212.706, 98.601C206.806, 108.701 202.206, 119.701 199.306, 131.301L169.306, 136.301C163.706, 137.201 159.506, 142.001 159.506, 147.801L159.406, 163.001L159.306, 178.201C159.306, 183.801 163.406, 188.801 169.006, 189.801L199.506, 195.101C202.506, 206.801 207.206, 217.701 213.106, 227.801L195.306, 252.501C192.006, 257.101 192.506, 263.501 196.506, 267.401L207.106, 278.101L217.706, 288.801C219.906, 291.101 222.906, 292.201 225.906, 292.201C228.206, 292.201 230.606, 291.501 232.606, 290.101L257.906, 272.201C267.706, 278.001 278.606, 282.601 289.806, 285.501L294.706, 315.801C295.606, 321.401 300.406, 325.601 306.206, 325.601L321.406, 325.701L336.606, 325.801L336.606, 325.801C342.206, 325.801 347.106, 321.701 348.106, 316.101L353.306, 285.801C365.006, 282.801 375.906, 278.401 386.106, 272.401L411.106, 290.301C413.206, 291.801 415.506, 292.501 417.906, 292.501C420.906, 292.501 423.806, 291.401 426.106, 289.201L436.806, 278.601L447.506, 268.001C451.506, 264.001 452.106, 257.701 448.806, 253.101L431.106, 227.901C437.206, 217.801 441.706, 206.801 444.806, 195.201L475.106, 190.301C480.706, 189.401 484.906, 184.601 484.906, 178.801L485.006, 163.601L485.106, 148.401C484.906, 142.901 480.806, 138.101 475.306, 137.101zM345.006, 262.701C337.306, 264.501 329.606, 265.301 322.006, 265.301C275.406, 265.301 233.306, 233.301 222.406, 185.901C209.806, 130.901 244.106, 76.001 299.206, 63.301C306.906, 61.501 314.606, 60.701 322.206, 60.701C368.806, 60.701 410.906, 92.701 421.806, 140.101C434.406, 195.201 400.006, 250.101 345.006, 262.701z" />
        </g>
      </g>
    </g>
  </g>
  <g id="Capa_1" transform="translate(-0.0076, -0.0176)" style="enable-background:new 0 0 485.106 485.106">
    <g transform="matrix(0.0577, 0, 0, 0.0577, 0, 0)">
      <g>
        <g>
          <path d="M380.606, 198.201C362.506, 193.601 347.806, 183.301 347.806, 183.301L336.306, 219.501L334.106, 226.301L334.106, 226.201L332.206, 232.001L326.206, 214.901C341.506, 193.601 322.206, 194.401 322.206, 194.401C322.206, 194.401 302.906, 193.601 318.206, 214.901L312.106, 232.201L310.206, 226.401L296.606, 183.401C296.606, 183.401 281.906, 193.701 263.806, 198.301C254.806, 200.601 251.506, 208.301 250.506, 215.501C266.706, 237.801 292.806, 251.701 322.006, 251.701C328.706, 251.701 335.406, 250.901 341.906, 249.401C363.006, 244.501 381.306, 232.401 393.806, 215.001C392.706, 207.901 389.406, 200.401 380.606, 198.201z" />
        </g>
      </g>
    </g>
  </g>
  <g id="Capa_1" transform="translate(-0.0076, -0.0176)" style="enable-background:new 0 0 485.106 485.106">
    <g transform="matrix(0.0577, 0, 0, 0.0577, 0, 0)">
      <g>
        <g>
          <path d="M163.606, 352.901C166.406, 350.901 167.306, 347.201 165.806, 344.101L157.706, 327.301C162.306, 321.801 166.106, 315.701 169.106, 309.101L187.706, 309.101C191.206, 309.101 194.106, 306.601 194.706, 303.201L196.206, 294.101L197.706, 285.001C198.106, 281.701 196.106, 278.401 192.906, 277.301L175.306, 271.201C174.706, 263.901 173.106, 256.901 170.506, 250.301L183.706, 237.101C186.106, 234.601 186.406, 230.801 184.506, 228.101L179.206, 220.601L173.906, 213.101C172.806, 211.501 171.106, 210.501 169.306, 210.301C167.906, 210.101 166.406, 210.301 165.106, 210.901L148.306, 219.001C142.806, 214.301 136.506, 210.401 129.606, 207.401L129.606, 189.001C129.606, 185.501 127.106, 182.601 123.706, 182.001L114.606, 180.501L105.506, 179.001L105.506, 179.001C102.206, 178.501 98.806, 180.401 97.706, 183.701L91.506, 201.401C84.206, 202.001 77.206, 203.801 70.606, 206.301L57.706, 193.101C56.606, 192.001 55.306, 191.401 53.906, 191.101C52.106, 190.801 50.206, 191.201 48.706, 192.301L41.206, 197.601L33.706, 202.901C30.906, 204.901 30.006, 208.601 31.506, 211.701L39.706, 228.601C35.206, 234.101 31.406, 240.201 28.506, 246.801L10.106, 246.801C6.606, 246.801 3.706, 249.301 3.106, 252.701L1.606, 261.801L0.106, 270.901C-0.494, 274.301 1.506, 277.601 4.806, 278.801L22.506, 285.001C23.106, 292.301 24.906, 299.301 27.406, 305.901L14.406, 319.001C12.006, 321.501 11.706, 325.301 13.606, 328.001L18.906, 335.501L24.206, 343.001C25.306, 344.601 27.006, 345.601 28.806, 345.801C30.206, 346.001 31.706, 345.801 33.006, 345.201L49.906, 337.001C55.206, 341.401 61.206, 345.201 67.706, 348.101L67.706, 366.701C67.706, 370.201 70.206, 373.101 73.606, 373.701L82.706, 375.201L91.806, 376.701L91.806, 376.701C95.106, 377.201 98.506, 375.301 99.606, 372.001L105.706, 354.401C113.006, 353.801 120.006, 352.201 126.606, 349.601L139.806, 362.801C140.906, 363.901 142.206, 364.501 143.606, 364.801C145.406, 365.101 147.306, 364.701 148.806, 363.601L156.306, 358.301L163.606, 352.901zM139.006, 281.201C137.206, 303.401 117.706, 319.901 95.506, 318.101C73.306, 316.301 56.806, 296.801 58.606, 274.601C60.406, 252.401 79.906, 235.901 102.106, 237.701C124.306, 239.501 140.806, 259.001 139.006, 281.201z" />
        </g>
      </g>
    </g>
  </g>
  <g id="Capa_1" transform="translate(-0.0076, -0.0176)" style="enable-background:new 0 0 485.106 485.106">
    <g transform="matrix(0.0577, 0, 0, 0.0577, 0, 0)">
      <g>
        <g>
          <path d="M305.106, 413.401L291.406, 406.901C291.606, 401.101 290.906, 395.301 289.406, 389.501L301.206, 380.001C303.406, 378.201 304.006, 375.201 302.606, 372.701L298.906, 366.201L295.206, 359.701C293.806, 357.401 290.806, 356.301 288.306, 357.201L274.006, 362.301C269.906, 358.001 265.306, 354.401 260.306, 351.501L261.906, 336.401C262.206, 333.601 260.406, 331.001 257.806, 330.301L250.606, 328.301L243.406, 326.301C241.906, 325.901 240.306, 326.101 239.006, 326.801C238.006, 327.401 237.206, 328.201 236.606, 329.301L230.106, 343.001C224.206, 342.801 218.206, 343.501 212.406, 345.201L203.006, 333.501C201.206, 331.301 198.206, 330.701 195.706, 332.101L189.206, 335.801L182.706, 339.501L182.706, 339.501C180.306, 340.901 179.206, 343.801 180.106, 346.401L185.206, 360.801C180.906, 364.901 177.306, 369.601 174.506, 374.501L159.606, 372.701C158.406, 372.601 157.206, 372.801 156.206, 373.401C154.906, 374.101 153.906, 375.301 153.506, 376.801L151.506, 384.001L149.506, 391.201C148.706, 393.901 150.006, 396.701 152.606, 397.901L166.406, 404.401C166.306, 410.201 167.006, 416.001 168.606, 421.701L156.906, 431.101C154.706, 432.901 154.106, 435.901 155.506, 438.401L159.206, 444.901L162.906, 451.401C164.306, 453.801 167.206, 455.001 169.906, 454.001L184.306, 448.901C188.406, 453.201 193.106, 456.801 198.006, 459.601L196.406, 474.501C196.106, 477.301 197.906, 479.901 200.506, 480.601L207.706, 482.601L214.906, 484.601C216.406, 485.001 218.006, 484.801 219.306, 484.101C220.306, 483.501 221.106, 482.701 221.706, 481.601L228.206, 467.801C233.806, 467.901 239.606, 467.201 245.106, 465.801L254.606, 477.601C256.406, 479.801 259.406, 480.401 261.906, 479.001L268.406, 475.301L274.906, 471.601L274.906, 471.601C277.306, 470.201 278.406, 467.301 277.506, 464.701L272.406, 450.401C276.706, 446.301 280.306, 441.701 283.206, 436.701L298.306, 438.301C299.506, 438.401 300.706, 438.201 301.706, 437.601C303.006, 436.901 304.006, 435.701 304.406, 434.201L306.406, 427.001L308.406, 419.801C308.906, 417.501 307.606, 414.601 305.106, 413.401zM247.206, 432.701C232.206, 442.801 211.806, 438.901 201.606, 423.901C191.506, 408.901 195.406, 388.501 210.406, 378.301C225.406, 368.101 245.806, 372.101 256.006, 387.101C266.206, 402.101 262.206, 422.501 247.206, 432.701z" />
        </g>
      </g>
    </g>
  </g>
  <g id="Capa_1" transform="translate(-0.0076, -0.0176)" style="enable-background:new 0 0 485.106 485.106">
    <g transform="matrix(0.0577, 0, 0, 0.0577, 0, 0)">
      <g>
        <g>
          <path d="M291.506, 159.201C293.106, 169.401 300.906, 182.301 313.806, 186.801C319.106, 188.701 324.906, 188.701 330.206, 186.801C342.906, 182.201 351.006, 169.301 352.606, 159.201C354.306, 159.101 356.606, 156.701 359.006, 148.101C362.306, 136.401 358.806, 134.701 355.806, 135.001C356.406, 133.401 356.806, 131.801 357.106, 130.201C362.106, 99.901 347.206, 98.901 347.206, 98.901C347.206, 98.901 344.706, 94.101 338.206, 90.601C333.806, 88.001 327.806, 86.001 319.806, 86.701C317.206, 86.801 314.806, 87.301 312.506, 88.101L312.506, 88.101C309.606, 89.101 306.906, 90.501 304.406, 92.201C301.406, 94.101 298.606, 96.401 296.106, 99.101C292.206, 103.101 288.606, 108.401 287.106, 114.901C285.806, 119.801 286.106, 124.801 287.206, 130.301L287.206, 130.301C287.506, 131.901 287.906, 133.501 288.506, 135.101C285.506, 134.801 282.006, 136.501 285.306, 148.201C287.506, 156.601 289.806, 159.001 291.506, 159.201z" />
        </g>
      </g>
    </g>
  </g>
</svg>